<svg width="196" height="144" viewBox="0 0 196 144" fill="none" xmlns="http://www.w3.org/2000/svg">
<g clip-path="url(#clip0_232_1894)">
<path d="M38.7414 74.997L36.1592 47.6196L28.4596 47.8852L34.5546 74.9205C34.0574 75.338 33.6994 75.8973 33.5285 76.5238C33.3577 77.1502 33.3822 77.8139 33.5987 78.4261C33.8152 79.0383 34.2134 79.5697 34.7401 79.9494C35.2667 80.3291 35.8968 80.5389 36.5459 80.5508C37.195 80.5626 37.8322 80.376 38.3724 80.0158C38.9126 79.6556 39.33 79.139 39.5687 78.5352C39.8074 77.9313 39.8561 77.269 39.7082 76.6367C39.5604 76.0044 39.2231 75.4323 38.7414 74.997Z" fill="#FFB8B8"/>
<path d="M185.119 136.017C185.048 138.668 184.604 141.297 183.8 143.824C183.782 143.883 183.762 143.941 183.743 143.999H178.82C178.825 143.946 178.831 143.888 178.836 143.824C179.164 140.05 181.056 117.079 178.794 113.15C178.992 113.469 185.5 124.024 185.119 136.017Z" fill="#2ECA15"/>
<path d="M184.329 143.634C184.243 143.756 184.153 143.879 184.062 144H176.339C176.397 143.896 176.465 143.773 176.544 143.634C177.82 141.33 181.596 134.446 185.102 127.306C188.869 119.634 192.325 111.672 192.034 108.79C192.123 109.44 194.729 129.254 184.329 143.634Z" fill="#2ECA15"/>
<path d="M14.6964 131.995C14.8022 135.944 15.4636 139.858 16.6612 143.623C16.6877 143.71 16.7172 143.796 16.7459 143.883H24.0769C24.0692 143.805 24.0613 143.718 24.0536 143.623C23.5648 138.002 20.7465 103.793 24.1162 97.9424C23.8213 98.4169 14.1269 114.136 14.6964 131.995Z" fill="#2ECA15"/>
<path d="M15.2465 143.622C15.3079 143.71 15.3716 143.797 15.4369 143.883H20.9366C20.8949 143.809 20.8465 143.721 20.7905 143.622C19.882 141.982 17.1927 137.078 14.6964 131.995C12.0148 126.532 9.55256 120.862 9.75991 118.81C9.69593 119.272 7.83953 133.382 15.2465 143.622Z" fill="#2ECA15"/>
<path d="M174.061 115.299H97.5247C97.149 115.299 96.7888 115.149 96.5231 114.884C96.2574 114.618 96.108 114.258 96.1075 113.882V94.8926C96.108 94.5168 96.2574 94.1566 96.5231 93.8908C96.7888 93.6251 97.149 93.4756 97.5247 93.4751H174.061C174.436 93.4756 174.797 93.6251 175.062 93.8908C175.328 94.1566 175.477 94.5168 175.478 94.8926V113.882C175.477 114.257 175.328 114.618 175.062 114.884C174.797 115.149 174.436 115.299 174.061 115.299ZM97.5247 94.041C97.2996 94.0415 97.0837 94.1312 96.9245 94.2904C96.7653 94.4497 96.6756 94.6655 96.6751 94.8908V113.88C96.6756 114.105 96.7653 114.321 96.9245 114.48C97.0837 114.639 97.2996 114.729 97.5247 114.73H174.061C174.286 114.729 174.502 114.639 174.661 114.48C174.82 114.321 174.91 114.105 174.91 113.88V94.8926C174.91 94.6674 174.82 94.4515 174.661 94.2922C174.502 94.1329 174.286 94.0433 174.061 94.0429L97.5247 94.041Z" fill="#3F3D56"/>
<path d="M90.3004 138.218C93.489 138.218 96.0738 135.633 96.0738 132.444C96.0738 129.255 93.489 126.669 90.3004 126.669C87.1119 126.669 84.527 129.255 84.527 132.444C84.527 135.633 87.1119 138.218 90.3004 138.218Z" fill="black"/>
<path d="M103.635 128.793C103.379 128.793 103.135 128.895 102.954 129.075C102.774 129.256 102.672 129.501 102.672 129.756C102.672 130.011 102.774 130.256 102.954 130.436C103.135 130.617 103.379 130.718 103.635 130.718H148.997C149.124 130.718 149.249 130.694 149.366 130.646C149.483 130.598 149.589 130.527 149.678 130.438C149.768 130.348 149.839 130.243 149.887 130.126C149.936 130.009 149.961 129.884 149.961 129.758C149.962 129.631 149.937 129.506 149.889 129.389C149.841 129.272 149.77 129.166 149.681 129.077C149.592 128.987 149.486 128.916 149.369 128.867C149.253 128.819 149.128 128.794 149.001 128.793H103.635Z" fill="#BF2A2A"/>
<path d="M103.634 134.568C103.379 134.568 103.134 134.669 102.954 134.849C102.773 135.029 102.671 135.274 102.67 135.529C102.67 135.784 102.771 136.029 102.951 136.21C103.131 136.391 103.376 136.493 103.631 136.493H123.154C123.41 136.493 123.654 136.392 123.835 136.211C124.015 136.031 124.117 135.786 124.117 135.531C124.117 135.275 124.015 135.031 123.835 134.85C123.654 134.67 123.41 134.568 123.154 134.568H103.634Z" fill="#BF2A2A"/>
<path d="M109.417 110.069C112.605 110.069 115.19 107.484 115.19 104.295C115.19 101.106 112.605 98.5205 109.417 98.5205C106.228 98.5205 103.643 101.106 103.643 104.295C103.643 107.484 106.228 110.069 109.417 110.069Z" fill="black"/>
<path d="M122.751 100.645C122.496 100.645 122.251 100.746 122.07 100.927C121.89 101.107 121.789 101.352 121.789 101.607C121.789 101.863 121.89 102.107 122.07 102.288C122.251 102.468 122.496 102.57 122.751 102.57H168.114C168.369 102.57 168.614 102.468 168.794 102.288C168.974 102.107 169.076 101.863 169.076 101.607C169.076 101.352 168.974 101.107 168.794 100.927C168.614 100.746 168.369 100.645 168.114 100.645H122.751Z" fill="#BF2A2A"/>
<path d="M122.751 106.419C122.496 106.419 122.251 106.521 122.07 106.701C121.89 106.882 121.789 107.127 121.789 107.382C121.789 107.637 121.89 107.882 122.07 108.062C122.251 108.243 122.496 108.344 122.751 108.344H142.271C142.526 108.344 142.77 108.243 142.951 108.062C143.131 107.882 143.233 107.637 143.233 107.382C143.233 107.127 143.131 106.882 142.951 106.701C142.77 106.521 142.526 106.419 142.271 106.419H122.751Z" fill="#BF2A2A"/>
<path d="M159.192 68.2963H82.6565C82.2808 68.2958 81.9206 68.1463 81.6549 67.8806C81.3893 67.6149 81.2398 67.2546 81.2393 66.8788V1.41753C81.2398 1.04173 81.3893 0.681458 81.6549 0.415727C81.9206 0.149995 82.2808 0.000491841 82.6565 0H159.192C159.568 0.000491841 159.928 0.149995 160.194 0.415727C160.46 0.681458 160.609 1.04173 160.61 1.41753V66.8785C160.609 67.2543 160.46 67.6146 160.194 67.8804C159.928 68.1461 159.568 68.2956 159.192 68.296V68.2963ZM82.6565 0.565895C82.4314 0.566386 82.2155 0.656073 82.0563 0.815331C81.8971 0.974588 81.8074 1.19045 81.8069 1.41567V66.8785C81.8074 67.1037 81.8971 67.3196 82.0563 67.4789C82.2155 67.6381 82.4314 67.7278 82.6565 67.7283H159.192C159.418 67.7279 159.634 67.6382 159.793 67.4789C159.952 67.3197 160.042 67.1038 160.042 66.8785V1.41753C160.042 1.1923 159.952 0.976448 159.793 0.81719C159.633 0.657933 159.418 0.568246 159.192 0.567755L82.6565 0.565895Z" fill="#3F3D56"/>
<path d="M94.5485 17.2858C97.737 17.2858 100.322 14.7004 100.322 11.5113C100.322 8.32214 97.737 5.73682 94.5485 5.73682C91.3599 5.73682 88.7751 8.32214 88.7751 11.5113C88.7751 14.7004 91.3599 17.2858 94.5485 17.2858Z" fill="#DE2629"/>
<path d="M107.883 7.66162C107.627 7.66162 107.383 7.76301 107.202 7.94349C107.022 8.12397 106.92 8.36875 106.92 8.62399C106.92 8.87922 107.022 9.12401 107.202 9.30449C107.383 9.48497 107.627 9.58636 107.883 9.58636H153.245C153.501 9.58636 153.745 9.48497 153.926 9.30449C154.106 9.12401 154.208 8.87922 154.208 8.62399C154.208 8.36875 154.106 8.12397 153.926 7.94349C153.745 7.76301 153.501 7.66162 153.245 7.66162H107.883Z" fill="#CCCCCC"/>
<path d="M107.883 13.4363C107.627 13.4363 107.383 13.5377 107.202 13.7182C107.022 13.8986 106.92 14.1434 106.92 14.3986C106.92 14.6539 107.022 14.8987 107.202 15.0791C107.383 15.2596 107.627 15.361 107.883 15.361H127.402C127.658 15.361 127.902 15.2596 128.083 15.0791C128.263 14.8987 128.365 14.6539 128.365 14.3986C128.365 14.1434 128.263 13.8986 128.083 13.7182C127.902 13.5377 127.658 13.4363 127.402 13.4363H107.883Z" fill="#CCCCCC"/>
<path d="M61.9128 138.439H56.0717L52.6202 89.8429L52.4874 102.191L39.7432 136.182L34.6987 132.199L43.062 98.3407L39.0795 79.4863H65.0988L61.9128 138.439Z" fill="#2F2E41"/>
<path d="M52.6201 19.4709C56.4326 19.4709 59.5232 16.3797 59.5232 12.5665C59.5232 8.75332 56.4326 5.66211 52.6201 5.66211C48.8077 5.66211 45.717 8.75332 45.717 12.5665C45.717 16.3797 48.8077 19.4709 52.6201 19.4709Z" fill="#FFB8B8"/>
<path d="M65.8956 83.2039C54.6175 80.3094 44.0356 78.3589 37.4867 81.8762C38.6337 69.8171 37.307 54.4234 33.3714 38.3346C32.0933 33.1087 32.9601 28.3999 37.6195 25.7114L43.8588 22.1265L53.4169 22.392L58.4039 25.1517C60.8425 26.3704 62.8168 28.3519 64.027 30.7952C65.2372 33.2384 65.617 36.01 65.1089 38.6888C62.4292 52.7916 63.8772 68.0126 65.8956 83.2039Z" fill="#3F3D56"/>
<path d="M40.1418 49.4785L27.6631 48.6818C28.638 36.4037 31.4125 29.6918 35.6282 27.4375L40.1418 32.7486V49.4785Z" fill="#3F3D56"/>
<path d="M177.377 59.804H100.84C100.465 59.8036 100.104 59.6541 99.8387 59.3884C99.573 59.1227 99.4235 58.7623 99.4231 58.3865V24.792C99.4235 24.4162 99.573 24.0559 99.8387 23.7902C100.104 23.5244 100.465 23.3749 100.84 23.3745H177.377C177.752 23.3749 178.113 23.5244 178.378 23.7902C178.644 24.0559 178.793 24.4162 178.794 24.792V58.3865C178.793 58.7623 178.644 59.1227 178.378 59.3884C178.113 59.6541 177.752 59.8036 177.377 59.804Z" fill="#DE2629"/>
<path d="M116.427 35.084C116.172 35.084 115.927 35.1854 115.747 35.3659C115.566 35.5463 115.465 35.7911 115.465 36.0464C115.465 36.3016 115.566 36.5464 115.747 36.7269C115.927 36.9073 116.172 37.0087 116.427 37.0087H161.79C162.045 37.0087 162.29 36.9073 162.471 36.7269C162.651 36.5464 162.752 36.3016 162.752 36.0464C162.752 35.7911 162.651 35.5463 162.471 35.3659C162.29 35.1854 162.045 35.084 161.79 35.084H116.427Z" fill="white"/>
<path d="M116.427 40.6606C116.172 40.6606 115.927 40.762 115.747 40.9425C115.566 41.123 115.465 41.3678 115.465 41.623C115.465 41.8783 115.566 42.123 115.747 42.3035C115.927 42.484 116.172 42.5854 116.427 42.5854H161.79C162.045 42.5854 162.29 42.484 162.471 42.3035C162.651 42.123 162.752 41.8783 162.752 41.623C162.752 41.3678 162.651 41.123 162.471 40.9425C162.29 40.762 162.045 40.6606 161.79 40.6606H116.427Z" fill="white"/>
<path d="M116.427 46.1699C116.172 46.1699 115.927 46.2713 115.747 46.4518C115.566 46.6323 115.465 46.8771 115.465 47.1323C115.465 47.3875 115.566 47.6323 115.747 47.8128C115.927 47.9933 116.172 48.0947 116.427 48.0947H135.947C136.202 48.0947 136.447 47.9933 136.627 47.8128C136.808 47.6323 136.909 47.3875 136.909 47.1323C136.909 46.8771 136.808 46.6323 136.627 46.4518C136.447 46.2713 136.202 46.1699 135.947 46.1699H116.427Z" fill="white"/>
<path d="M54.9738 3.48112C54.3308 3.41367 53.7244 3.75596 53.0917 3.89591C51.7907 4.18112 50.4579 3.58999 49.1203 3.59504C47.9705 3.66043 46.8521 3.9943 45.8546 4.56989C45.0478 4.95122 44.3117 5.46672 43.6774 6.09444C43.0396 6.73227 42.6683 7.58891 42.6388 8.49053C42.7272 9.007 42.7113 9.53592 42.5921 10.0461C42.4572 10.3034 42.2971 10.5466 42.1142 10.7722C41.9486 11.0379 41.843 11.3366 41.8044 11.6473C41.7659 11.958 41.7955 12.2734 41.8911 12.5716C42.1591 13.1622 42.5216 13.7052 42.9643 14.1792C43.8251 15.2837 44.3643 16.6061 45.1366 17.7783C45.4736 18.2871 45.8517 18.7675 46.2669 19.2147C46.3348 19.2939 46.4176 19.359 46.5106 19.4064C46.6021 19.4386 46.6989 19.4526 46.7958 19.4478C48.4342 19.4946 50.1297 19.5307 51.6383 18.8878C52.1216 18.7202 52.532 18.3903 52.7996 17.9544C53.0172 17.3562 53.0567 16.7077 52.9135 16.0875C52.8449 15.3968 52.8606 14.7002 52.9602 14.0133C52.9671 13.7813 53.062 13.5606 53.2257 13.3961C53.3495 13.3192 53.4913 13.2763 53.6369 13.2716C53.7825 13.267 53.9268 13.3007 54.0552 13.3696C54.3115 13.5046 54.5914 13.589 54.8796 13.6184C55.4448 13.6184 55.8025 12.9752 55.9166 12.4152C55.8543 11.9119 55.9288 11.4011 56.1323 10.9365C56.3358 10.472 56.6607 10.0709 57.0729 9.77555C57.4613 9.28253 57.728 8.70489 57.8514 8.08949C57.9748 7.47409 57.9514 6.83826 57.7831 6.23359C57.4106 5.06807 56.27 3.61071 54.9738 3.48112Z" fill="#2F2E41"/>
<path d="M154.944 143.448H78.4085C78.0328 143.448 77.6726 143.298 77.4069 143.033C77.1412 142.767 76.9917 142.407 76.9912 142.031V123.042C76.9917 122.666 77.1411 122.305 77.4068 122.04C77.6725 121.774 78.0328 121.624 78.4085 121.624H154.944C155.32 121.625 155.68 121.774 155.946 122.04C156.212 122.305 156.361 122.666 156.362 123.042V142.031C156.361 142.406 156.212 142.767 155.946 143.032C155.68 143.298 155.32 143.448 154.944 143.448ZM78.4085 122.19C78.1833 122.19 77.9675 122.28 77.8083 122.439C77.649 122.599 77.5594 122.814 77.5589 123.04V142.029C77.5594 142.254 77.649 142.47 77.8083 142.629C77.9675 142.788 78.1833 142.878 78.4085 142.878H154.944C155.17 142.878 155.385 142.788 155.545 142.629C155.704 142.47 155.794 142.254 155.794 142.029V123.042C155.794 122.816 155.704 122.6 155.545 122.441C155.385 122.282 155.17 122.192 154.944 122.192L78.4085 122.19Z" fill="#3F3D56"/>
<path d="M68.2123 73.935L65.6301 46.5576L57.9305 46.8232L64.0256 73.8585C63.5283 74.2759 63.1703 74.8353 62.9995 75.4618C62.8286 76.0882 62.8531 76.7519 63.0696 77.3641C63.2861 77.9763 63.6843 78.5077 64.211 78.8874C64.7377 79.2671 65.3677 79.4769 66.0168 79.4887C66.6659 79.5006 67.3032 79.314 67.8433 78.9538C68.3835 78.5936 68.8009 78.077 69.0396 77.4732C69.2783 76.8693 69.327 76.207 69.1792 75.5747C69.0313 74.9424 68.694 74.3703 68.2123 73.935Z" fill="#FFB8B8"/>
<path d="M68.2848 47.0886L56.6027 49.7442L56.0717 30.6243L62.7093 30.8898L68.2848 47.0886Z" fill="#3F3D56"/>
<path d="M55.8868 137.961L64.3602 137.96H64.3606C65.7927 137.961 67.1661 138.53 68.1788 139.542C69.1914 140.555 69.7604 141.929 69.7605 143.361V143.537L55.8871 143.537L55.8868 137.961Z" fill="#2F2E41"/>
<path d="M34.6051 131.251L41.7284 135.841L41.7287 135.841C42.9325 136.617 43.7789 137.839 44.0818 139.239C44.3846 140.639 44.1191 142.102 43.3436 143.306L43.2485 143.454L31.5857 135.939L34.6051 131.251Z" fill="#2F2E41"/>
<path d="M196 143.469H0V144H196V143.469Z" fill="#CACACA"/>
</g>
<defs>
<clipPath id="clip0_232_1894">
<rect width="196" height="144" fill="white"/>
</clipPath>
</defs>
</svg>
