<svg width="66" height="66" viewBox="0 0 66 66" fill="none" xmlns="http://www.w3.org/2000/svg">
<path fill-rule="evenodd" clip-rule="evenodd" d="M29.8341 24.4363C28.6518 24.4363 27.5 25.4966 27.5 27.0109C27.5 28.1032 27.7348 28.5415 27.8906 28.74C28.0654 28.9626 28.3843 29.196 29.1245 29.46L38.1727 32.6164C39.2136 32.9869 40.3755 33.5593 41.24 34.6663C42.1224 35.7962 42.4907 37.2156 42.4907 38.8773C42.4907 42.449 39.7288 45.4955 36.1128 45.4955H30.4649C26.5007 45.4955 23.4261 42.1614 23.4261 38.2164C23.4261 37.0997 24.3313 36.1945 25.448 36.1945C26.5647 36.1945 27.4699 37.0997 27.4699 38.2164C27.4699 40.0994 28.9015 41.4518 30.4649 41.4518H36.1128C37.3034 41.4518 38.4469 40.4127 38.4469 38.8773C38.4469 37.8051 38.2144 37.362 38.0528 37.1551C37.8738 36.9258 37.5498 36.6877 36.8223 36.4281L27.7742 33.2717C26.7459 32.9058 25.579 32.3437 24.7103 31.2375C23.8222 30.1066 23.4562 28.6824 23.4562 27.0109C23.4562 23.478 26.2097 20.3926 29.8341 20.3926H35.4819C39.4461 20.3926 42.5207 23.7267 42.5207 27.6718C42.5207 28.7884 41.6155 29.6936 40.4988 29.6936C39.3822 29.6936 38.477 28.7884 38.477 27.6718C38.477 25.7887 37.0453 24.4363 35.4819 24.4363H29.8341Z" fill="#323232"/>
<path fill-rule="evenodd" clip-rule="evenodd" d="M32.9584 17.4178C34.075 17.4178 34.9803 18.3231 34.9803 19.4397V46.4772C34.9803 47.5938 34.075 48.499 32.9584 48.499C31.8417 48.499 30.9365 47.5938 30.9365 46.4772V19.4397C30.9365 18.3231 31.8417 17.4178 32.9584 17.4178Z" fill="#323232"/>
<path fill-rule="evenodd" clip-rule="evenodd" d="M32.9584 4.93878C17.4921 4.93878 4.93869 17.4922 4.93869 32.9585C4.93869 48.4248 17.4921 60.9782 32.9584 60.9782C48.4247 60.9782 60.9781 48.4248 60.9781 32.9585C60.9781 31.8418 61.8833 30.9366 63 30.9366C64.1166 30.9366 65.0219 31.8418 65.0219 32.9585C65.0219 50.6581 50.658 65.0219 32.9584 65.0219C15.2588 65.0219 0.894928 50.6581 0.894928 32.9585C0.894928 15.2589 15.2588 0.89502 32.9584 0.89502C34.0751 0.89502 34.9803 1.80025 34.9803 2.9169C34.9803 4.03355 34.0751 4.93878 32.9584 4.93878Z" fill="#323232"/>
<path fill-rule="evenodd" clip-rule="evenodd" d="M47.9792 3.89905C49.0958 3.89905 50.0011 4.80427 50.0011 5.92093V15.9157H59.9958C61.1125 15.9157 62.0177 16.8209 62.0177 17.9376C62.0177 19.0542 61.1125 19.9594 59.9958 19.9594H47.9792C46.8625 19.9594 45.9573 19.0542 45.9573 17.9376V5.92093C45.9573 4.80427 46.8625 3.89905 47.9792 3.89905Z" fill="#323232"/>
<path fill-rule="evenodd" clip-rule="evenodd" d="M64.4297 1.48709C65.2193 2.27669 65.2193 3.55687 64.4297 4.34646L49.4089 19.3673C48.6193 20.1569 47.3391 20.1569 46.5495 19.3673C45.7599 18.5777 45.7599 17.2975 46.5495 16.5079L61.5703 1.48709C62.3599 0.697499 63.6401 0.697499 64.4297 1.48709Z" fill="#323232"/>
</svg>
