<svg width="70" height="79" viewBox="0 0 70 79" fill="none" xmlns="http://www.w3.org/2000/svg">
<path fill-rule="evenodd" clip-rule="evenodd" d="M20.8389 0.955078C21.9435 0.955078 22.8389 1.85051 22.8389 2.95508V13.9557C22.8389 15.0603 21.9435 15.9557 20.8389 15.9557C19.7343 15.9557 18.8389 15.0603 18.8389 13.9557V2.95508C18.8389 1.85051 19.7343 0.955078 20.8389 0.955078Z" fill="#323232"/>
<path fill-rule="evenodd" clip-rule="evenodd" d="M49.8612 0.955078C50.9657 0.955078 51.8612 1.85051 51.8612 2.95508V13.9557C51.8612 15.0603 50.9657 15.9557 49.8612 15.9557C48.7566 15.9557 47.8612 15.0603 47.8612 13.9557V2.95508C47.8612 1.85051 48.7566 0.955078 49.8612 0.955078Z" fill="#323232"/>
<path fill-rule="evenodd" clip-rule="evenodd" d="M2.51395 28.9528C2.51395 27.8482 3.40938 26.9528 4.51395 26.9528H66.1862C67.2907 26.9528 68.1862 27.8482 68.1862 28.9528C68.1862 30.0573 67.2907 30.9528 66.1862 30.9528H4.51395C3.40938 30.9528 2.51395 30.0573 2.51395 28.9528Z" fill="#323232"/>
<path fill-rule="evenodd" clip-rule="evenodd" d="M8.48084 14.8506C5.98668 17.5655 4.70001 21.5912 4.70001 26.79V57.9584C4.70001 63.1572 5.98668 67.1829 8.48084 69.8978C10.947 72.5823 14.8778 74.2928 20.8389 74.2928H49.8611C55.8222 74.2928 59.7531 72.5823 62.2192 69.8978C64.7133 67.1829 66 63.1572 66 57.9584V26.79C66 21.5912 64.7133 17.5655 62.2192 14.8506C59.7531 12.1661 55.8222 10.4556 49.8611 10.4556H20.8389C14.8778 10.4556 10.947 12.1661 8.48084 14.8506ZM5.53516 12.1445C8.96417 8.41189 14.1028 6.45557 20.8389 6.45557H49.8611C56.5973 6.45557 61.7359 8.41189 65.1649 12.1445C68.5659 15.8465 70 20.9881 70 26.79V57.9584C70 63.7603 68.5659 68.9019 65.1649 72.6039C61.7359 76.3365 56.5973 78.2928 49.8611 78.2928H20.8389C14.1028 78.2928 8.96417 76.3365 5.53516 72.6039C2.13418 68.9019 0.700012 63.7603 0.700012 57.9584V26.79C0.700012 20.9881 2.13418 15.8465 5.53516 12.1445Z" fill="#323232"/>
<path fill-rule="evenodd" clip-rule="evenodd" d="M46.7535 45.8578C46.7535 44.7532 47.6489 43.8578 48.7535 43.8578H48.7892C49.8938 43.8578 50.7892 44.7532 50.7892 45.8578C50.7892 46.9624 49.8938 47.8578 48.7892 47.8578H48.7535C47.6489 47.8578 46.7535 46.9624 46.7535 45.8578Z" fill="#323232"/>
<path fill-rule="evenodd" clip-rule="evenodd" d="M46.7535 56.8588C46.7535 55.7542 47.6489 54.8588 48.7535 54.8588H48.7892C49.8938 54.8588 50.7892 55.7542 50.7892 56.8588C50.7892 57.9633 49.8938 58.8588 48.7892 58.8588H48.7535C47.6489 58.8588 46.7535 57.9633 46.7535 56.8588Z" fill="#323232"/>
<path fill-rule="evenodd" clip-rule="evenodd" d="M33.3336 45.8578C33.3336 44.7532 34.229 43.8578 35.3336 43.8578H35.3694C36.4739 43.8578 37.3694 44.7532 37.3694 45.8578C37.3694 46.9624 36.4739 47.8578 35.3694 47.8578H35.3336C34.229 47.8578 33.3336 46.9624 33.3336 45.8578Z" fill="#323232"/>
<path fill-rule="evenodd" clip-rule="evenodd" d="M33.3336 56.8588C33.3336 55.7542 34.229 54.8588 35.3336 54.8588H35.3694C36.4739 54.8588 37.3694 55.7542 37.3694 56.8588C37.3694 57.9633 36.4739 58.8588 35.3694 58.8588H35.3336C34.229 58.8588 33.3336 57.9633 33.3336 56.8588Z" fill="#323232"/>
<path fill-rule="evenodd" clip-rule="evenodd" d="M19.9066 45.8578C19.9066 44.7532 20.802 43.8578 21.9066 43.8578H21.9422C23.0468 43.8578 23.9422 44.7532 23.9422 45.8578C23.9422 46.9624 23.0468 47.8578 21.9422 47.8578H21.9066C20.802 47.8578 19.9066 46.9624 19.9066 45.8578Z" fill="#323232"/>
<path fill-rule="evenodd" clip-rule="evenodd" d="M19.9066 56.8588C19.9066 55.7542 20.802 54.8588 21.9066 54.8588H21.9422C23.0468 54.8588 23.9422 55.7542 23.9422 56.8588C23.9422 57.9633 23.0468 58.8588 21.9422 58.8588H21.9066C20.802 58.8588 19.9066 57.9633 19.9066 56.8588Z" fill="#323232"/>
</svg>
