<svg width="63" height="60" viewBox="0 0 63 60" fill="none" xmlns="http://www.w3.org/2000/svg">
<path d="M47.373 60H15.6464C14.3456 60 13.2669 58.9684 13.2669 57.7243C13.2669 56.4802 14.3456 55.4485 15.6464 55.4485H47.373C48.6738 55.4485 49.7525 56.4802 49.7525 57.7243C49.7525 58.9684 48.6738 60 47.373 60Z" fill="#323232"/>
<path d="M58.0021 9.99067L45.3115 18.669C43.6299 19.822 41.2187 19.1241 40.489 17.2732L34.4927 1.97993C33.4774 -0.659976 29.575 -0.659976 28.5598 1.97993L22.5318 17.2428C21.8021 19.1241 19.4226 19.822 17.7411 18.6386L5.05043 9.96033C2.5123 8.26108 -0.850718 10.6582 0.196261 13.4802L13.3945 48.8308C13.8387 50.0445 15.0443 50.8335 16.3768 50.8335H46.6122C47.9448 50.8335 49.1504 50.0142 49.5945 48.8308L62.7928 13.4802C63.8715 10.6582 60.5085 8.26108 58.0021 9.99067ZM39.442 37.9981H23.5788C22.278 37.9981 21.1993 36.9664 21.1993 35.7223C21.1993 34.4782 22.278 33.4465 23.5788 33.4465H39.442C40.7428 33.4465 41.8215 34.4782 41.8215 35.7223C41.8215 36.9664 40.7428 37.9981 39.442 37.9981Z" fill="#323232"/>
</svg>
