<svg width="69" height="69" viewBox="0 0 69 69" fill="none" xmlns="http://www.w3.org/2000/svg">
<path d="M52.6802 69C50.9788 69 48.7959 68.4506 46.0672 66.8347L36.4686 61.1143C35.4734 60.5326 33.5472 60.5326 32.5842 61.1143L22.9535 66.8347C17.2714 70.2281 13.9328 68.8707 12.424 67.7719C10.9473 66.6731 8.63591 63.8614 10.1447 57.3977L12.424 47.4759C12.6808 46.4417 12.1672 44.6642 11.3967 43.8886L3.43533 35.8736C-0.545361 31.8661 -0.224338 28.4403 0.321401 26.7597C0.867141 25.0791 2.60067 22.1058 8.12227 21.1686L18.3629 19.4557C19.326 19.2941 20.7064 18.2599 21.1237 17.3873L26.8058 5.97891C29.3739 0.775643 32.7447 0 34.5103 0C36.2759 0 39.6467 0.775643 42.2149 5.97891L47.8649 17.355C48.3143 18.2276 49.6947 19.2618 50.6578 19.4234L60.8984 21.1363C66.4521 22.0735 68.1857 25.0468 68.6993 26.7274C69.2129 28.408 69.534 31.8338 65.5854 35.8413L57.624 43.8886C56.8535 44.6642 56.372 46.4094 56.5967 47.4759L58.876 57.3977C60.3527 63.8614 58.0734 66.6731 56.5967 67.7719C55.7942 68.3536 54.5101 69 52.6802 69ZM34.5103 55.8141C36.0833 55.8141 37.6563 56.2019 38.9083 56.9452L48.5069 62.6656C51.2998 64.3461 53.0655 64.3461 53.7396 63.8614C54.4138 63.3766 54.8953 61.6637 54.189 58.4965L51.9098 48.5747C51.2998 45.8923 52.295 42.4342 54.2212 40.4628L62.1825 32.4478C63.7555 30.8642 64.4618 29.3129 64.1408 28.2464C63.7876 27.1798 62.3109 26.3072 60.128 25.9517L49.8873 24.2388C47.4155 23.8187 44.7189 21.815 43.5953 19.5527L37.9453 8.17657C36.918 6.10819 35.6339 4.88009 34.5103 4.88009C33.3867 4.88009 32.1026 6.10819 31.1075 8.17657L25.4254 19.5527C24.3018 21.815 21.6052 23.8187 19.1334 24.2388L8.92483 25.9517C6.74187 26.3072 5.26516 27.1798 4.91203 28.2464C4.55891 29.3129 5.29726 30.8965 6.87028 32.4478L14.8317 40.4628C16.7578 42.4019 17.753 45.8923 17.143 48.5747L14.8638 58.4965C14.1254 61.696 14.639 63.3766 15.3132 63.8614C15.9873 64.3461 17.7209 64.3138 20.5459 62.6656L30.1444 56.9452C31.3643 56.2019 32.9373 55.8141 34.5103 55.8141Z" fill="#323232"/>
</svg>
