<svg width="30" height="30" viewBox="0 0 30 30" fill="none" xmlns="http://www.w3.org/2000/svg">
<path d="M11.029 27.797H18.7681C25.2173 27.797 27.797 25.2173 27.797 18.7681V11.029C27.797 4.5797 25.2173 2 18.7681 2H11.029C4.5797 2 2 4.5797 2 11.029V18.7681C2 25.2173 4.5797 27.797 11.029 27.797Z" stroke="#C12C2C" stroke-width="3.46522" stroke-linecap="round" stroke-linejoin="round"/>
<path d="M14.8985 19.413C17.3918 19.413 19.413 17.3918 19.413 14.8985C19.413 12.4052 17.3918 10.384 14.8985 10.384C12.4052 10.384 10.384 12.4052 10.384 14.8985C10.384 17.3918 12.4052 19.413 14.8985 19.413Z" stroke="#C12C2C" stroke-width="3.46522" stroke-linecap="round" stroke-linejoin="round"/>
<path d="M22.1682 8.44922H22.1832" stroke="#C12C2C" stroke-width="4.6203" stroke-linecap="round" stroke-linejoin="round"/>
</svg>
