<svg width="24" height="24" viewBox="0 0 24 24" fill="none" xmlns="http://www.w3.org/2000/svg">
<path d="M11.7251 0C5.26456 0 0 5.26456 0 11.7251C0 18.1856 5.26456 23.4502 11.7251 23.4502C18.1856 23.4502 23.4502 18.1856 23.4502 11.7251C23.4502 5.26456 18.1856 0 11.7251 0ZM16.8255 15.9109C16.6613 16.1923 16.3682 16.3448 16.0634 16.3448C15.9109 16.3448 15.7585 16.3096 15.6178 16.2158L11.983 14.0466C11.0802 13.5073 10.4119 12.3231 10.4119 11.2795V6.47225C10.4119 5.99152 10.8105 5.59286 11.2913 5.59286C11.772 5.59286 12.1706 5.99152 12.1706 6.47225V11.2795C12.1706 11.7016 12.5224 12.3231 12.8859 12.5341L16.5206 14.7033C16.9427 14.9495 17.0834 15.4888 16.8255 15.9109Z" fill="#A50000"/>
</svg>
