<svg width="24" height="24" viewBox="0 0 24 24" fill="none" xmlns="http://www.w3.org/2000/svg">
<path d="M17.4733 23.1391H5.7711C5.29131 23.1391 4.89343 22.7412 4.89343 22.2615C4.89343 21.7817 5.29131 21.3838 5.7711 21.3838H17.4733C17.9531 21.3838 18.3509 21.7817 18.3509 22.2615C18.3509 22.7412 17.9531 23.1391 17.4733 23.1391Z" fill="#AC890B"/>
<path d="M21.3937 3.85294L16.7129 7.19976C16.0926 7.64444 15.2033 7.37529 14.9341 6.66146L12.7224 0.763567C12.3479 -0.254522 10.9086 -0.254522 10.5341 0.763567L8.31072 6.64976C8.04157 7.37529 7.16391 7.64444 6.54369 7.18806L1.86282 3.84124C0.926648 3.18592 -0.313782 4.11039 0.0723896 5.19869L4.94049 18.8318C5.10432 19.2999 5.54901 19.6041 6.0405 19.6041H17.1926C17.6841 19.6041 18.1288 19.2882 18.2926 18.8318L23.1608 5.19869C23.5586 4.11039 22.3182 3.18592 21.3937 3.85294ZM14.548 14.6541H8.69689C8.2171 14.6541 7.81923 14.2562 7.81923 13.7764C7.81923 13.2966 8.2171 12.8988 8.69689 12.8988H14.548C15.0277 12.8988 15.4256 13.2966 15.4256 13.7764C15.4256 14.2562 15.0277 14.6541 14.548 14.6541Z" fill="#AC890B"/>
</svg>
