<svg width="26" height="27" viewBox="0 0 26 27" fill="none" xmlns="http://www.w3.org/2000/svg">
<path d="M20.2648 0.0771484H5.79723C2.6442 0.0771484 0.0750732 2.64628 0.0750732 5.7993V14.2333V14.4928C0.0750732 17.6588 2.6442 20.215 5.79723 20.215H10.7798C11.4934 20.215 12.0773 20.7989 12.0773 21.5125V22.7711C12.0773 23.4848 11.4934 24.0687 10.7798 24.0687H7.63974C7.10775 24.0687 6.66658 24.5098 6.66658 25.0418C6.66658 25.5738 7.09477 26.028 7.63974 26.028H18.4742C19.0062 26.028 19.4474 25.5868 19.4474 25.0548C19.4474 24.5228 19.0062 24.0817 18.4742 24.0817H15.3342C14.6205 24.0817 14.0366 23.4978 14.0366 22.7841V21.5255C14.0366 20.8119 14.6205 20.228 15.3342 20.228H20.2778C23.4438 20.228 25.9999 17.6588 25.9999 14.5058V14.2463V5.81228C25.987 2.64628 23.4178 0.0771484 20.2648 0.0771484Z" fill="#A50000"/>
<path d="M18 10L9.75 14.3301V5.66987L18 10Z" fill="white"/>
</svg>
