<svg width="39" height="38" viewBox="0 0 39 38" fill="none" xmlns="http://www.w3.org/2000/svg">
<path d="M21.1595 25.4158C20.742 24.8084 20.0019 24.4668 19.148 24.4668H14.7263C14.4416 24.4668 14.157 24.3529 13.9862 24.1251C13.7964 23.8973 13.7205 23.6126 13.7584 23.29L14.3088 19.7596C14.5365 18.7156 13.8343 17.5199 12.7906 17.1592C11.8038 16.7986 10.6652 17.2921 10.1907 17.9944L5.80701 24.5237V23.7075C5.80701 22.1132 5.12383 21.4678 3.45384 21.4678H2.35317C0.683178 21.4868 0 22.1321 0 23.7265V34.5645C0 36.1588 0.683178 36.8042 2.35317 36.8042H3.45384C5.04792 36.8042 5.71213 36.1778 5.76906 34.7353L9.09006 37.2977C9.56449 37.7532 10.5703 37.9999 11.2914 37.9999H15.4854C16.9276 37.9999 18.3699 36.918 18.7115 35.5894L21.3683 27.5226C21.6529 26.7444 21.577 26.0042 21.1595 25.4158Z" fill="#FFF8F8"/>
<path d="M36.2669 1.19578H35.1662C33.5721 1.19578 32.9079 1.82214 32.832 3.26467L29.511 0.702283C29.0556 0.246748 28.0308 0 27.3097 0H23.1157C21.6735 0 20.2312 1.08189 19.8896 2.41054L17.2328 10.4773C16.9481 11.2555 17.043 11.9957 17.4416 12.5841C17.859 13.1915 18.5992 13.5332 19.4531 13.5332H23.8748C24.1595 13.5332 24.4441 13.6471 24.6149 13.8748C24.8047 14.1026 24.8806 14.3873 24.8426 14.71L24.2923 18.2404C24.0646 19.2844 24.7667 20.4801 25.8105 20.8408C26.7973 21.2014 27.9359 20.7079 28.4103 20.0056L32.7941 13.4762V14.2924C32.7941 15.8868 33.4772 16.5322 35.1472 16.5322H36.2479C37.9179 16.5322 38.6011 15.8868 38.6011 14.2924V3.41651C38.6201 1.84112 37.9369 1.19578 36.2669 1.19578Z" fill="#272626"/>
</svg>
