<svg width="30" height="30" viewBox="0 0 30 30" fill="none" xmlns="http://www.w3.org/2000/svg">
<path d="M22.6292 29.3832H6.78604C3.0373 29.3832 0 26.3322 0 22.5834V12.4454C0 10.5848 1.14925 8.24522 2.62685 7.09597L10.0012 1.34973C12.2176 -0.37414 15.7611 -0.456229 18.0596 1.15819L26.5148 7.08229C28.1429 8.21786 29.4153 10.6532 29.4153 12.637V22.5971C29.4153 26.3322 26.378 29.3832 22.6292 29.3832ZM11.2599 2.96415L3.88555 8.71039C2.91416 9.47656 2.05223 11.2141 2.05223 12.4454V22.5834C2.05223 25.1966 4.17286 27.3309 6.78604 27.3309H22.6292C25.2424 27.3309 27.363 25.2103 27.363 22.5971V12.637C27.363 11.3236 26.419 9.50392 25.3382 8.76512L16.883 2.84102C15.3233 1.7465 12.7512 1.80122 11.2599 2.96415Z" fill="#510101"/>
<path d="M8.55154 21.8716C8.29159 21.8716 8.03164 21.7759 7.82642 21.5706C7.42966 21.1739 7.42966 20.5172 7.82642 20.1204L12.2045 15.7423C12.4234 15.5234 12.7107 15.4139 13.0254 15.4413C13.3264 15.4687 13.6 15.6329 13.7778 15.8928L15.2691 18.1366L20.1261 13.2796C20.5228 12.8829 21.1795 12.8829 21.5763 13.2796C21.9731 13.6764 21.9731 14.3331 21.5763 14.7299L15.8301 20.4761C15.6112 20.695 15.3239 20.8045 15.0092 20.7771C14.7082 20.7497 14.4346 20.5856 14.2567 20.3256L12.7654 18.0818L9.27666 21.5706C9.07144 21.7759 8.81149 21.8716 8.55154 21.8716Z" fill="#510101"/>
<path d="M20.8643 17.7673C20.3034 17.7673 19.8382 17.3021 19.8382 16.7412V15.031H18.128C17.5671 15.031 17.1019 14.5658 17.1019 14.0049C17.1019 13.4439 17.5671 12.9788 18.128 12.9788H20.8643C21.4253 12.9788 21.8904 13.4439 21.8904 14.0049V16.7412C21.8904 17.3021 21.4253 17.7673 20.8643 17.7673Z" fill="#510101"/>
</svg>
