<svg width="24" height="24" viewBox="0 0 24 24" fill="none" xmlns="http://www.w3.org/2000/svg">
<g clip-path="url(#clip0_823_53884)">
<path d="M12 21C16.9706 21 21 16.9706 21 12C21 7.02944 16.9706 3 12 3C7.02944 3 3 7.02944 3 12C3 16.9706 7.02944 21 12 21Z" stroke="#666666" stroke-width="1.3" stroke-linecap="round" stroke-linejoin="round"/>
<path d="M11.25 11.25H12.0001L12 16.5H12.75" stroke="#666666" stroke-width="1.3" stroke-linecap="round" stroke-linejoin="round"/>
<path d="M12.4375 7.875C12.4375 8.11662 12.2416 8.3125 12 8.3125C11.7584 8.3125 11.5625 8.11662 11.5625 7.875C11.5625 7.63338 11.7584 7.4375 12 7.4375C12.2416 7.4375 12.4375 7.63338 12.4375 7.875Z" fill="black" stroke="#666666"/>
</g>
<defs>
<clipPath id="clip0_823_53884">
<rect width="24" height="24" fill="white"/>
</clipPath>
</defs>
</svg>
