<svg width="30" height="29" viewBox="0 0 30 29" fill="none" xmlns="http://www.w3.org/2000/svg">
<path d="M26.6929 26.815C26.4138 26.815 26.1487 26.7071 25.9534 26.5182L17.0508 17.9126C16.6462 17.5214 16.6462 16.874 17.0508 16.4828L27.8371 6.05628C28.1023 5.8 28.5069 5.70558 28.8697 5.8C29.2325 5.90791 29.5115 6.19116 29.5952 6.54186C29.8603 7.68838 30 8.96978 30 10.4535V18.5466C30 22.2829 29.1907 24.8052 27.4325 26.5182C27.2371 26.7071 26.9441 26.7475 26.6929 26.815ZM19.2694 17.1977L26.6092 24.2926C27.4883 22.9843 27.9069 21.1228 27.9069 18.5466V10.4535C27.9069 9.90048 27.8928 9.38792 27.851 8.90234L19.2694 17.1977Z" fill="#510101"/>
<path d="M7.0048 28.6359C6.92108 28.6359 6.85134 28.6225 6.76761 28.609C2.1489 27.5838 0 24.3871 0 18.5466V10.4535C0 3.12932 3.23728 0 10.8142 0H19.1865C25.2285 0 28.5355 2.07723 29.596 6.5419C29.6798 6.87912 29.5681 7.24329 29.317 7.48608L7.74435 28.3392C7.549 28.528 7.28388 28.6359 7.0048 28.6359ZM10.8142 2.02327C4.3815 2.02327 2.09307 4.23537 2.09307 10.4535V18.5466C2.09307 23.2271 3.43265 25.5741 6.68389 26.5048L27.4053 6.47445C26.4564 3.33164 24.0145 2.03674 19.1725 2.03674H10.8142V2.02327Z" fill="#510101"/>
<path d="M19.187 29H10.8147C9.27978 29 7.96813 28.8786 6.7681 28.6088C6.39135 28.5279 6.09829 28.2581 6.00062 27.9074C5.88899 27.5567 6.00062 27.179 6.26574 26.9093L17.0521 16.4827C17.4568 16.0915 18.1265 16.0915 18.5312 16.4827L27.4337 25.0883C27.6291 25.2772 27.7407 25.5334 27.7407 25.8032C27.7407 26.073 27.6291 26.3293 27.4337 26.5181C25.6616 28.2176 23.0522 29 19.187 29ZM9.21002 26.9228C9.71236 26.9632 10.2426 26.9767 10.8147 26.9767H19.187C21.8662 26.9767 23.7778 26.5721 25.1314 25.7223L17.7916 18.6274L9.21002 26.9228Z" fill="#510101"/>
<path d="M10.9801 16.2671C10.101 16.2671 9.22188 15.9568 8.52419 15.3229C6.30553 13.2861 5.41253 11.0471 5.94277 8.86198C6.47302 6.6229 8.49629 5.11218 10.9801 5.11218C13.4639 5.11218 15.4872 6.6229 16.0175 8.86198C16.5337 11.0606 15.6407 13.2861 13.422 15.3229C12.7383 15.9433 11.8592 16.2671 10.9801 16.2671ZM7.98002 9.30709C7.53349 11.1415 8.81723 12.7872 9.9754 13.8528C10.5475 14.3787 11.4266 14.3787 11.9848 13.8528C13.129 12.8007 14.4128 11.155 13.9802 9.30709C13.6034 7.70196 12.1243 7.12196 10.9801 7.12196C9.83586 7.12196 8.37072 7.70196 7.98002 9.30709Z" fill="#510101"/>
<path d="M11.024 11.1148C10.2565 11.1148 9.6286 10.5078 9.6286 9.76596C9.6286 9.02409 10.2426 8.41711 11.024 8.41711H11.038C11.8054 8.41711 12.4333 9.02409 12.4333 9.76596C12.4333 10.5078 11.7914 11.1148 11.024 11.1148Z" fill="#510101"/>
</svg>
