<svg width="28" height="29" viewBox="0 0 28 29" fill="none" xmlns="http://www.w3.org/2000/svg">
<path d="M18.7382 28.0506H18.5664C12.7002 28.0506 9.87278 25.7385 9.38392 20.5593C9.33107 20.0176 9.72744 19.5287 10.2824 19.4759C10.8108 19.423 11.3129 19.8326 11.3658 20.3743C11.7489 24.5229 13.7043 26.0688 18.5797 26.0688H18.7514C24.1288 26.0688 26.0314 24.1662 26.0314 18.7888V10.1744C26.0314 4.797 24.1288 2.89444 18.7514 2.89444H18.5797C13.6779 2.89444 11.7225 4.4667 11.3658 8.69462C11.2997 9.23632 10.8373 9.6459 10.2824 9.59306C9.72744 9.55342 9.33107 9.06457 9.37071 8.52286C9.81993 3.26438 12.6606 0.912598 18.5664 0.912598H18.7382C25.2254 0.912598 28 3.68717 28 10.1744V18.7888C28 25.276 25.2254 28.0506 18.7382 28.0506Z" fill="#AC890B"/>
<path d="M18.4192 15.4726H3.38368C2.84198 15.4726 2.39276 15.0233 2.39276 14.4816C2.39276 13.9399 2.84198 13.4907 3.38368 13.4907H18.4192C18.9609 13.4907 19.4101 13.9399 19.4101 14.4816C19.4101 15.0233 18.9609 15.4726 18.4192 15.4726Z" fill="#AC890B"/>
<path d="M6.33047 19.8986C6.07944 19.8986 5.82841 19.8062 5.63022 19.608L1.20411 15.1819C0.820959 14.7987 0.820959 14.1645 1.20411 13.7814L5.63022 9.35524C6.01338 8.97208 6.64757 8.97208 7.03072 9.35524C7.41388 9.73839 7.41388 10.3726 7.03072 10.7557L3.30486 14.4816L7.03072 18.2075C7.41388 18.5906 7.41388 19.2248 7.03072 19.608C6.84575 19.8062 6.58151 19.8986 6.33047 19.8986Z" fill="#AC890B"/>
</svg>
