<svg width="25" height="23" viewBox="0 0 25 23" fill="none" xmlns="http://www.w3.org/2000/svg">
<path d="M11.9936 15.5502C9.6841 15.5502 7.80975 13.6759 7.80975 11.3664C7.80975 9.05697 9.6841 7.18262 11.9936 7.18262C14.303 7.18262 16.1774 9.05697 16.1774 11.3664C16.1774 13.6759 14.303 15.5502 11.9936 15.5502ZM11.9936 8.85614C10.6101 8.85614 9.48328 9.98298 9.48328 11.3664C9.48328 12.7499 10.6101 13.8767 11.9936 13.8767C13.377 13.8767 14.5039 12.7499 14.5039 11.3664C14.5039 9.98298 13.377 8.85614 11.9936 8.85614Z" fill="#AC890B"/>
<path d="M15.5749 22.7352C15.3407 22.7352 15.1064 22.7017 14.8721 22.6459C14.1803 22.4562 13.6002 22.0211 13.232 21.4075L13.0981 21.1844C12.4399 20.0464 11.5362 20.0464 10.8779 21.1844L10.7552 21.3963C10.387 22.0211 9.80686 22.4674 9.11514 22.6459C8.41226 22.8356 7.68706 22.7352 7.07344 22.367L5.15446 21.2625C4.47389 20.872 3.98299 20.236 3.77101 19.4662C3.57019 18.6964 3.6706 17.9043 4.06109 17.2237C4.38464 16.6547 4.47389 16.1415 4.28423 15.8179C4.09456 15.4944 3.61482 15.3047 2.95656 15.3047C1.32766 15.3047 0 13.977 0 12.3481V10.3845C0 8.75565 1.32766 7.42798 2.95656 7.42798C3.61482 7.42798 4.09456 7.23832 4.28423 6.91477C4.47389 6.59122 4.39579 6.07801 4.06109 5.50901C3.6706 4.82844 3.57019 4.02515 3.77101 3.26648C3.97183 2.49666 4.46274 1.86072 5.15446 1.47023L7.08459 0.365706C8.34531 -0.381802 10.0077 0.0533145 10.7663 1.33635L10.9002 1.55949C11.5585 2.69748 12.4622 2.69748 13.1204 1.55949L13.2432 1.34751C14.0018 0.0533145 15.6642 -0.381802 16.9361 0.376863L18.8551 1.48139C19.5356 1.87188 20.0265 2.50782 20.2385 3.27764C20.4393 4.04746 20.3389 4.8396 19.9484 5.52016C19.6249 6.08916 19.5356 6.60238 19.7253 6.92593C19.915 7.24948 20.3947 7.43914 21.053 7.43914C22.6819 7.43914 24.0095 8.7668 24.0095 10.3957V12.3593C24.0095 13.9882 22.6819 15.3159 21.053 15.3159C20.3947 15.3159 19.915 15.5055 19.7253 15.8291C19.5356 16.1526 19.6137 16.6658 19.9484 17.2348C20.3389 17.9154 20.4505 18.7187 20.2385 19.4774C20.0377 20.2472 19.5468 20.8831 18.8551 21.2736L16.9249 22.3781C16.501 22.6124 16.0435 22.7352 15.5749 22.7352ZM11.9936 18.6071C12.9866 18.6071 13.9126 19.2319 14.5485 20.3364L14.6712 20.5484C14.8051 20.7827 15.0283 20.9501 15.296 21.017C15.5638 21.084 15.8316 21.0505 16.0547 20.9166L17.9848 19.8009C18.2749 19.6336 18.498 19.3546 18.5873 19.0199C18.6765 18.6852 18.6319 18.3394 18.4646 18.0493C17.8286 16.9559 17.7505 15.8291 18.2414 14.97C18.7323 14.1109 19.7476 13.62 21.0195 13.62C21.7335 13.62 22.3025 13.051 22.3025 12.337V10.3734C22.3025 9.67051 21.7335 9.09035 21.0195 9.09035C19.7476 9.09035 18.7323 8.59945 18.2414 7.74038C17.7505 6.8813 17.8286 5.75446 18.4646 4.66109C18.6319 4.37101 18.6765 4.02515 18.5873 3.69044C18.498 3.35574 18.2861 3.08797 17.996 2.90946L16.0658 1.80494C15.5861 1.51486 14.9502 1.68221 14.6601 2.17311L14.5374 2.38509C13.9014 3.48962 12.9754 4.1144 11.9824 4.1144C10.9895 4.1144 10.0635 3.48962 9.42753 2.38509L9.3048 2.16196C9.02588 1.69337 8.4011 1.52602 7.92136 1.80494L5.99122 2.92062C5.70114 3.08797 5.47801 3.3669 5.38875 3.7016C5.2995 4.03631 5.34413 4.38217 5.51148 4.67225C6.14742 5.76562 6.22552 6.89246 5.73461 7.75153C5.24371 8.61061 4.22844 9.10151 2.95656 9.10151C2.24252 9.10151 1.67353 9.67051 1.67353 10.3845V12.3481C1.67353 13.051 2.24252 13.6312 2.95656 13.6312C4.22844 13.6312 5.24371 14.1221 5.73461 14.9812C6.22552 15.8402 6.14742 16.9671 5.51148 18.0605C5.34413 18.3505 5.2995 18.6964 5.38875 19.0311C5.47801 19.3658 5.68999 19.6336 5.98007 19.8121L7.9102 20.9166C8.14449 21.0616 8.42341 21.0951 8.68002 21.0282C8.94778 20.9612 9.17092 20.7827 9.31596 20.5484L9.43868 20.3364C10.0746 19.2431 11.0006 18.6071 11.9936 18.6071Z" fill="#AC890B"/>
</svg>
