<svg width="30" height="29" viewBox="0 0 30 29" fill="none" xmlns="http://www.w3.org/2000/svg">
<path d="M17.6584 2.91241L20.008 7.61167C20.3284 8.26585 21.1828 8.89329 21.9037 9.01344L26.1624 9.721C28.8859 10.1749 29.5267 12.1507 27.5642 14.0998L24.2534 17.4107C23.6926 17.9714 23.3856 19.0528 23.5591 19.8271L24.507 23.9256C25.2546 27.1697 23.5324 28.4246 20.6622 26.7291L16.6705 24.3661C15.9495 23.9389 14.7614 23.9389 14.0271 24.3661L10.0354 26.7291C7.17844 28.4246 5.44292 27.1563 6.19053 23.9256L7.13839 19.8271C7.31194 19.0528 7.00489 17.9714 6.44418 17.4107L3.13334 14.0998C1.18421 12.1507 1.81167 10.1749 4.53511 9.721L8.79381 9.01344C9.50137 8.89329 10.3558 8.26585 10.6762 7.61167L13.0259 2.91241C14.3075 0.362529 16.3901 0.362529 17.6584 2.91241Z" stroke="#AC890B" stroke-width="2" stroke-linecap="round" stroke-linejoin="round"/>
</svg>
