<svg width="262" height="166" viewBox="0 0 262 166" fill="none" xmlns="http://www.w3.org/2000/svg">
<g clip-path="url(#clip0_512_360)">
<path d="M55.5203 39.092L65.4156 52.5394C65.4156 52.5394 73.8522 56.0711 83.7125 63.1623L81.3522 66.8303C81.3522 66.8303 65.0772 60.1959 60.9123 57.3927L53.3069 45.5231L55.5203 39.092Z" fill="#A0616A"/>
<path d="M89.6296 69.6755C90.5739 68.2998 89.4527 65.901 87.1252 64.3177C84.7978 62.7344 82.1454 62.5661 81.2011 63.9418C80.2568 65.3175 81.378 67.7163 83.7055 69.2997C86.0329 70.883 88.6853 71.0513 89.6296 69.6755Z" fill="#A0616A"/>
<path d="M50.6835 27.6122L53.9218 26.6978C53.9218 26.6978 55.8068 26.7014 56.8703 28.5446C57.9337 30.3878 65.4633 46.8221 65.1064 47.4588C64.7495 48.0954 64.2513 48.2361 64.8908 48.5914C65.5303 48.9467 66.1158 48.7666 65.68 49.2989C65.2441 49.8313 65.8465 51.0009 65.8465 51.0009L57.5396 57.1022L50.6835 27.6122Z" fill="#C5C0C0"/>
<path d="M38.1197 162.749L42.0704 162.748L43.9498 147.578L38.1189 147.578L38.1197 162.749Z" fill="#A0616A"/>
<path d="M51.6553 162.66C51.7783 162.866 51.8432 163.531 51.8432 163.771C51.8432 164.509 51.2429 165.106 50.5023 165.106H38.2674C37.7622 165.106 37.3526 164.698 37.3526 164.196V163.688C37.3526 163.688 36.7474 162.164 37.9935 160.286C37.9935 160.286 39.5423 161.757 41.8565 159.453L42.5389 158.222L47.4789 161.819L50.217 162.154C50.816 162.228 51.3472 162.143 51.6553 162.66Z" fill="#2F2E41"/>
<path d="M52.4187 158.916L56.3149 159.567L60.6931 144.916L54.9427 143.955L52.4187 158.916Z" fill="#A0616A"/>
<path d="M65.7821 161.06C65.8691 161.284 65.8223 161.951 65.7824 162.188C65.6597 162.915 64.9682 163.405 64.2379 163.283L52.172 161.265C51.6738 161.182 51.3378 160.712 51.4215 160.216L51.5059 159.716C51.5059 159.716 51.1626 158.113 52.7042 156.466C52.7042 156.466 53.9867 158.172 56.6524 156.282L57.5302 155.181L61.8033 159.542L64.4478 160.325C65.0263 160.496 65.5642 160.5 65.7821 161.06Z" fill="#2F2E41"/>
<path d="M60.5174 81.0744C60.5174 81.0744 65.8254 87.2608 65.8254 92.9316C65.8254 98.6025 65.9549 116.417 65.9549 116.417C65.9549 116.417 62.8478 144.227 62.071 146.547C61.2942 148.867 60.9058 152.733 60.9058 152.733L53.3969 150.929C53.3969 150.929 52.3612 124.766 55.4683 118.579L47.9594 97.4425L45.3701 157.244H36.6532C36.6532 157.244 32.1648 125.797 34.4951 117.548C34.4951 117.548 29.3166 86.1008 30.6112 84.2965C31.9059 82.4921 60.5174 81.0744 60.5174 81.0744Z" fill="#2F2E41"/>
<path d="M41.2272 19.4683L48.2183 19.9839L50.5486 23.8504C50.5486 23.8504 55.9861 26.1702 56.7629 29.5212C57.5397 32.8722 57.7986 72.0526 57.7986 72.0526L61.6825 77.7235L61.4236 82.621L30.3522 84.1676V79.4588L27.504 73.857C27.504 73.857 30.6112 29.0057 31.3879 28.7479C32.1647 28.4901 38.1201 24.3659 38.1201 24.3659L41.2272 19.4683Z" fill="#C5C0C0"/>
<path d="M44.3913 18.5091C49.2534 18.5091 53.1949 14.5853 53.1949 9.74506C53.1949 4.90481 49.2534 0.981018 44.3913 0.981018C39.5293 0.981018 35.5878 4.90481 35.5878 9.74506C35.5878 14.5853 39.5293 18.5091 44.3913 18.5091Z" fill="#A0616A"/>
<path d="M51.4233 2.69586C50.9754 1.43108 49.7326 0.663767 48.3858 0.693655C48.3287 0.694907 48.2717 0.694381 48.2152 0.692071C47.5369 0.664464 46.8859 0.433844 46.2208 0.298553C44.9813 0.0463801 43.6743 0.130807 42.4779 0.540314C42.1061 0.66761 41.7337 0.82768 41.3405 0.827724C40.9472 0.827779 40.5189 0.613114 40.423 0.233474C40.4002 0.577194 40.3775 0.920895 40.3548 1.2646C40.2268 0.986412 40.0989 0.708209 39.9709 0.430009L39.7146 1.53944L38.8936 0.612238C38.967 1.02092 38.7277 1.43282 38.4036 1.6941C38.0796 1.9554 37.6793 2.09994 37.2957 2.26273C35.6398 2.96536 34.0851 4.20937 33.608 5.93719C33.3066 7.02882 33.4642 8.18737 33.624 9.30825C33.7652 10.2992 33.9187 11.3243 34.4597 12.1678C34.8066 12.7086 35.3065 13.1636 35.5177 13.7698C35.7145 14.3348 35.6399 14.9816 35.92 15.5107C36.2013 16.0421 36.7819 16.3428 37.3501 16.5447C37.9184 16.7467 38.5224 16.8895 39.0118 17.2409C39.5011 17.5924 40.0691 18.6047 41.1353 18.5502L41.4794 17.9066C41.8334 17.6195 40.5233 17.8471 40.5096 17.3927C40.496 16.9384 42.0859 16.6577 41.8606 16.2623C41.515 15.656 41.0475 15.1284 40.6581 14.549C40.2027 13.8714 39.8445 13.0798 40.0017 12.2528C40.0628 11.9311 40.214 11.6272 40.4444 11.3935C41.1085 10.7198 41.849 11.0159 42.5686 11.1123C43.0646 11.1788 43.657 11.102 43.9146 10.6748C44.2159 10.175 43.8801 9.53914 43.9212 8.95767C43.9647 8.34154 44.4336 7.83632 44.9439 7.48505C45.4542 7.13379 46.0336 6.87788 46.4927 6.46243C46.9518 6.04694 47.2788 5.39786 47.0787 4.81324C49.2548 3.91134 49.5879 3.82604 51.8794 4.37605C51.7702 3.80558 51.6173 3.24351 51.4233 2.69586Z" fill="#2F2E41"/>
<path d="M14.2576 114.787V88.1853C14.2576 87.4557 14.57 86.7574 15.1147 86.2692C15.6594 85.7812 16.3896 85.545 17.1187 85.6216C23.8719 84.7171 30.2324 85.1473 35.9967 87.6032C36.6496 87.6032 37.1808 88.132 37.1808 88.782V115.477C37.1808 116.127 36.6496 116.656 35.9967 116.656C29.6515 115.174 22.959 115.56 16.1345 116.656C15.0995 116.656 14.2576 115.817 14.2576 114.787Z" fill="#E6E6E6"/>
<path d="M14.2576 117.155V90.2723C14.2576 88.8507 15.4192 87.6943 16.8472 87.6943C23.3049 86.0122 29.6882 86.0093 35.9967 87.6943C36.6496 87.6943 37.1808 88.2231 37.1808 88.8731V115.295C37.1808 115.944 36.6512 116.472 35.9996 116.473C29.7793 115.396 23.1161 116.445 16.1345 119.024C15.0995 119.024 14.2576 118.186 14.2576 117.155Z" fill="url(#paint0_linear_512_360)"/>
<path d="M29.1694 98.8037H23.1309C20.9622 98.8037 19.1979 97.0475 19.1979 94.8885C19.1979 92.7296 20.9622 90.973 23.1309 90.973H29.1694C31.3383 90.973 33.1026 92.7296 33.1026 94.8885C33.1026 97.0475 31.3383 98.8037 29.1694 98.8037Z" fill="#4D4D4D"/>
<path d="M34.7039 46.0023L34.4731 59.8815C34.4731 59.8815 33.7354 70.6982 31.9033 82.8708L27.5365 83.1482C27.5365 83.1482 28.0738 64.1421 27.878 59.1409L28.1869 48.033L34.7039 46.0023Z" fill="#A0616A"/>
<path d="M30.1324 91.4739C31.8052 91.4173 33.0837 89.0977 32.9879 86.293C32.8921 83.4883 31.4584 81.2605 29.7856 81.3171C28.1128 81.3737 26.8343 83.6933 26.9301 86.498C27.0259 89.3027 28.4596 91.5305 30.1324 91.4739Z" fill="#A0616A"/>
<path d="M34.636 28.3325L31.2722 28.4544C31.2722 28.4544 29.4798 29.0353 29.0376 31.1148C28.5955 33.1943 25.4964 54.7155 26.0327 55.2119C26.5691 55.7083 27.0866 55.6896 26.5879 56.2235C26.0893 56.7575 25.4765 56.7655 26.0558 57.1385C26.635 57.5115 26.4234 58.8088 26.4234 58.8088L35.727 58.1527L34.636 28.3325Z" fill="#C5C0C0"/>
<path d="M256.574 152.333H167.073C166.554 152.333 166.04 152.254 165.545 152.099L165.492 152.078C137.467 138.212 113.44 130.645 92.0363 128.942L91.9548 128.926C89.8375 128.26 88.415 126.326 88.415 124.116V5.05008C88.415 3.42427 89.1707 1.94066 90.4881 0.979861C91.8057 0.0190613 93.4542 -0.25054 95.012 0.239302L165.766 22.5186C166.19 22.6521 166.63 22.7196 167.073 22.7196H256.574C259.369 22.7196 261.642 24.9831 261.642 27.7652V147.288C261.642 150.07 259.369 152.333 256.574 152.333ZM165.792 151.411C166.208 151.539 166.639 151.604 167.073 151.604H256.574C258.965 151.604 260.909 149.668 260.909 147.288V27.7652C260.909 25.3855 258.965 23.4495 256.574 23.4495H167.073C166.554 23.4495 166.04 23.3705 165.545 23.2146L94.7908 0.935314C93.4585 0.515498 92.0484 0.746789 90.9215 1.5686C89.7945 2.39059 89.1482 3.65948 89.1482 5.05008V124.116C89.1482 125.993 90.3474 127.636 92.1372 128.218C113.618 129.935 137.712 137.521 165.792 151.411Z" fill="#3F3D56"/>
<path d="M169.463 146.927C193.866 138.33 221.091 139.317 250.012 146.069C253.643 146.917 257.124 144.196 257.124 140.483V31.6914C257.124 29.0495 255.315 26.7396 252.737 26.112C222.227 18.6847 193.729 17.3182 168.615 26.144C166.775 26.7906 164.733 26.4402 163.18 25.2637C142.017 9.22631 120.358 1.18529 98.0526 3.57287C95.1346 3.88522 92.9336 6.36086 92.9336 9.28252V119.261C92.9336 122.205 95.1717 124.668 98.1138 124.972C122.122 127.458 144.184 134.992 164.701 146.529C166.154 147.346 167.89 147.481 169.463 146.927Z" fill="#F2F2F2"/>
<path d="M168.679 140.826C167.018 140.826 165.381 140.371 163.938 139.48C146.707 128.826 127.935 122.603 108.142 120.982C103.502 120.602 99.8669 116.662 99.8669 112.012V18.0722C99.8669 13.2508 103.623 9.30012 108.418 9.07828C122.828 8.40935 140.326 14.8069 163.48 29.2045C165.438 30.4221 167.82 30.7836 170.015 30.1977C192.02 24.3175 215.873 24.1457 242.939 29.6726C247.141 30.5308 250.19 34.2435 250.19 38.501V130.194C250.19 132.961 248.94 135.532 246.76 137.245C244.565 138.972 241.739 139.591 239.008 138.944C213.404 132.877 191.418 133.316 171.793 140.285C170.774 140.647 169.721 140.826 168.679 140.826ZM110.475 9.7611C109.793 9.7611 109.12 9.77642 108.452 9.80743C104.049 10.0111 100.6 13.6414 100.6 18.0722V112.012C100.6 116.285 103.939 119.905 108.202 120.254C128.112 121.885 146.994 128.145 164.325 138.859C166.481 140.193 169.114 140.462 171.547 139.598C191.309 132.579 213.432 132.133 239.178 138.234C241.689 138.829 244.287 138.26 246.306 136.673C248.309 135.098 249.457 132.737 249.457 130.194V38.501C249.457 34.5885 246.654 31.1763 242.791 30.3875C215.84 24.8836 192.097 25.0521 170.205 30.9026C167.814 31.5409 165.222 31.148 163.092 29.8235C141.149 16.1793 124.346 9.7611 110.475 9.7611Z" fill="white"/>
<path d="M167.015 30.7428L166.282 30.7495L167.302 140.659L168.035 140.652L167.015 30.7428Z" fill="white"/>
<path d="M106.866 46.1722L106.636 46.865L157.969 63.774L158.199 63.0812L106.866 46.1722Z" fill="#3F3D56"/>
<path d="M106.866 59.6995L106.636 60.3923L157.969 77.3013L158.199 76.6085L106.866 59.6995Z" fill="#3F3D56"/>
<path d="M106.866 73.2266L106.636 73.9194L157.969 90.8284L158.199 90.1356L106.866 73.2266Z" fill="#3F3D56"/>
<path d="M106.866 86.7538L106.636 87.4465L157.969 104.356L158.199 103.663L106.866 86.7538Z" fill="#3F3D56"/>
<path d="M240.894 41.1316H179.369V41.8615H240.894V41.1316Z" fill="#3F3D56"/>
<path d="M240.894 53.9073H179.369V54.6372H240.894V53.9073Z" fill="#3F3D56"/>
<path d="M240.894 66.6829H179.369V67.4127H240.894V66.6829Z" fill="#3F3D56"/>
<path d="M240.894 79.4587H179.369V80.1885H240.894V79.4587Z" fill="#3F3D56"/>
<path d="M240.894 92.2343H179.369V92.9641H240.894V92.2343Z" fill="#3F3D56"/>
<path d="M240.894 105.01H179.369V105.74H240.894V105.01Z" fill="#3F3D56"/>
<path d="M19.8901 159.675C19.1328 159.722 18.7143 158.785 19.2872 158.239L19.3442 158.014C19.3367 157.996 19.3292 157.977 19.3216 157.959C18.5557 156.141 15.9601 156.154 15.2007 157.975C14.5267 159.591 13.6686 161.209 13.4574 162.918C13.3626 163.672 13.4053 164.441 13.5734 165.181C11.9941 161.747 11.1631 157.997 11.1631 154.225C11.1631 153.278 11.2152 152.33 11.3217 151.385C11.4093 150.612 11.5301 149.843 11.6863 149.082C12.5316 144.967 14.3618 141.047 17.0018 137.773C18.2709 137.082 19.3292 136.003 19.9685 134.709C20.1981 134.242 20.3781 133.74 20.4633 133.229C20.3189 133.247 19.9187 131.058 20.0277 130.923C19.8264 130.619 19.4662 130.468 19.2463 130.171C18.1531 128.696 16.6469 128.954 15.8605 130.959C14.1808 131.803 14.1645 133.202 15.1952 134.549C15.8509 135.405 15.941 136.564 16.5164 137.481C16.4572 137.556 16.3956 137.629 16.3364 137.705C15.251 139.091 14.3122 140.58 13.5207 142.145C13.7444 140.406 13.4142 138.311 12.8512 136.96C12.2104 135.421 11.0092 134.125 9.95142 132.794C8.68086 131.196 6.07545 131.893 5.8516 133.919C5.84944 133.939 5.84733 133.958 5.84526 133.978C6.00237 134.066 6.1563 134.16 6.30665 134.259C7.16426 134.824 6.86787 136.147 5.8517 136.303L5.82869 136.307C5.88552 136.87 5.98259 137.429 6.12464 137.978C4.76765 143.202 7.6973 145.105 11.8805 145.191C11.9728 145.238 12.0628 145.285 12.1551 145.33C11.7313 146.518 11.3927 147.736 11.1418 148.971C10.9168 150.063 10.7606 151.166 10.673 152.274C10.564 153.671 10.5735 155.076 10.6919 156.471L10.6848 156.422C10.3841 154.885 9.54595 153.45 8.32895 152.455C6.51599 150.972 3.95463 150.427 1.99878 149.235C1.05728 148.661 -0.14917 149.402 0.015145 150.489L0.0231437 150.541C0.314365 150.659 0.598478 150.796 0.873133 150.949C1.03025 151.037 1.18417 151.131 1.33452 151.23C2.19213 151.795 1.89574 153.118 0.879573 153.274L0.856545 153.278C0.839976 153.28 0.825763 153.282 0.809216 153.285C1.3088 154.466 2.00488 155.562 2.87618 156.507C3.72468 161.067 7.36898 161.5 11.2672 160.172H11.2696C11.6958 162.02 12.3185 163.826 13.1188 165.546H19.7246C19.7483 165.473 19.7696 165.398 19.7909 165.325C19.18 165.362 18.5644 165.327 17.963 165.216C18.4532 164.617 18.9433 164.014 19.4334 163.415C19.4452 163.404 19.4547 163.392 19.4642 163.38C19.7128 163.074 19.9637 162.77 20.2123 162.463C20.2279 161.522 20.1146 160.584 19.8901 159.675Z" fill="#EC5B8F"/>
<path d="M93.7745 165.566C93.7745 165.807 93.5802 166 93.3382 166H0.48762C0.245689 166 0.0513916 165.807 0.0513916 165.566C0.0513916 165.325 0.245689 165.131 0.48762 165.131H93.3382C93.5802 165.131 93.7745 165.325 93.7745 165.566Z" fill="#CCCCCC"/>
<path d="M108.396 30.4005L109.191 26.2362L109.606 26.376L108.858 30.2899L108.647 30.2191L111.948 27.1648L112.341 27.2969L111.604 31.2146L111.399 31.1457L114.684 28.0856L115.104 28.2273L111.626 31.4879L111.183 31.3386L111.864 27.6237L111.985 27.6582L108.84 30.5498L108.396 30.4005ZM116.805 29.8762C117.074 29.9668 117.276 30.0939 117.411 30.2575C117.551 30.4186 117.62 30.6085 117.618 30.8273C117.62 31.0474 117.546 31.2844 117.398 31.5382L116.484 33.1235L116.08 32.9876L116.996 31.3966C117.156 31.1213 117.202 30.8792 117.133 30.6703C117.068 30.4626 116.88 30.3065 116.569 30.2018C116.25 30.0946 115.956 30.0925 115.685 30.1954C115.417 30.2995 115.189 30.5139 115 30.8384L114.141 32.3347L113.738 32.1988L116 28.2629L116.403 28.3988L115.278 30.3497L115.226 30.1674C115.456 29.9581 115.705 29.833 115.972 29.7921C116.243 29.7524 116.521 29.7805 116.805 29.8762ZM118.845 33.9499C118.591 33.8644 118.382 33.7373 118.22 33.5685C118.057 33.3998 117.952 33.2022 117.906 32.9756C117.86 32.749 117.881 32.505 117.969 32.2434C118.055 31.9894 118.176 31.7684 118.332 31.5804C118.488 31.3924 118.669 31.2443 118.874 31.1362C119.08 31.0242 119.301 30.9591 119.535 30.9408C119.773 30.9238 120.013 30.9562 120.255 31.0379C120.517 31.1259 120.723 31.248 120.873 31.404C121.024 31.5563 121.119 31.7381 121.158 31.9494C121.198 32.157 121.175 32.3859 121.091 32.6361C120.97 32.9962 120.796 33.2942 120.569 33.5301C120.341 33.7659 120.08 33.9226 119.784 34.0002C119.487 34.0777 119.174 34.0609 118.845 33.9499ZM119.05 33.6204C119.301 33.7046 119.542 33.7205 119.775 33.6681C120.013 33.6131 120.223 33.498 120.404 33.3228C120.589 33.1488 120.727 32.9272 120.818 32.658C120.917 32.3623 120.907 32.1036 120.788 31.8819C120.672 31.6615 120.459 31.4989 120.148 31.3943C119.902 31.3113 119.66 31.2973 119.422 31.3522C119.184 31.4072 118.972 31.5216 118.787 31.6956C118.607 31.8671 118.471 32.0893 118.379 32.3623C118.28 32.6542 118.289 32.9104 118.405 33.1308C118.524 33.3525 118.74 33.5157 119.05 33.6204ZM119.923 34.2814L120.383 33.4802L120.756 32.9349L121.024 32.3285L121.508 31.4913L121.912 31.6273L120.31 34.4116L119.923 34.2814ZM122.374 35.1383C122.204 35.0809 122.07 34.9957 121.973 34.8828C121.877 34.7662 121.827 34.6313 121.824 34.4782C121.825 34.3265 121.876 34.1622 121.977 33.9854L123.452 31.4113L123.856 31.5472L122.387 34.1043C122.286 34.2772 122.251 34.4258 122.281 34.5498C122.315 34.6751 122.421 34.7678 122.599 34.8278C122.682 34.8559 122.768 34.8719 122.855 34.876C122.944 34.8763 123.029 34.8607 123.111 34.8293L123.105 35.1689C122.986 35.2091 122.862 35.2245 122.734 35.2153C122.608 35.2022 122.488 35.1766 122.374 35.1383ZM122.389 32.1614L122.564 31.8469L124.412 32.4691L124.231 32.7817L122.389 32.1614ZM125.318 36.0977L127.454 32.3853L127.869 32.525L125.733 36.2374L125.318 36.0977ZM127.809 36.968C127.566 36.8863 127.348 36.775 127.155 36.634C126.962 36.493 126.825 36.3497 126.743 36.204L127.043 35.9506C127.123 36.0913 127.245 36.2232 127.41 36.3464C127.577 36.4658 127.763 36.56 127.967 36.6289C128.252 36.7246 128.486 36.7506 128.669 36.7069C128.856 36.6644 128.978 36.5598 129.034 36.393C129.073 36.2793 129.06 36.18 128.995 36.095C128.936 36.0076 128.847 35.927 128.729 35.8532C128.611 35.7757 128.486 35.6976 128.352 35.6187C128.218 35.5399 128.094 35.4561 127.981 35.3672C127.868 35.2745 127.787 35.1648 127.737 35.0382C127.69 34.9128 127.695 34.7667 127.751 34.5999C127.815 34.4104 127.924 34.2634 128.077 34.1588C128.234 34.0556 128.422 33.9986 128.641 33.9879C128.86 33.9771 129.1 34.0158 129.362 34.1039C129.551 34.1677 129.731 34.2555 129.9 34.3673C130.069 34.4792 130.196 34.5978 130.28 34.7233L130.001 34.99C129.914 34.8594 129.799 34.749 129.656 34.6588C129.515 34.5648 129.366 34.4916 129.211 34.4393C128.934 34.3461 128.703 34.3252 128.517 34.3765C128.336 34.4252 128.218 34.5311 128.163 34.6941C128.125 34.8079 128.135 34.9085 128.194 34.9959C128.257 35.0847 128.347 35.1678 128.465 35.2453C128.582 35.3228 128.708 35.401 128.842 35.4798C128.981 35.5561 129.104 35.64 129.213 35.7314C129.325 35.8241 129.405 35.9312 129.453 36.0528C129.506 36.1718 129.504 36.3148 129.448 36.4816C129.381 36.6787 129.27 36.8289 129.112 36.9321C128.957 37.0316 128.765 37.0854 128.539 37.0936C128.318 37.0992 128.074 37.0574 127.809 36.968ZM132.072 38.3717L134.012 34.9983L132.607 34.5254L132.804 34.1863L136.022 35.27L135.826 35.609L134.427 35.138L132.487 38.5114L132.072 38.3717ZM137.546 36.8593C137.815 36.9499 138.017 37.077 138.152 37.2406C138.292 37.4016 138.361 37.5916 138.359 37.8104C138.361 38.0305 138.287 38.2675 138.139 38.5213L137.225 40.1066L136.821 39.9707L137.737 38.3796C137.897 38.1044 137.943 37.8623 137.874 37.6534C137.808 37.4457 137.62 37.2896 137.31 37.1849C136.991 37.0777 136.696 37.0755 136.425 37.1785C136.158 37.2826 135.93 37.497 135.74 37.8215L134.882 39.3178L134.478 39.1819L136.741 35.246L137.144 35.3819L136.019 37.3328L135.966 37.1505C136.197 36.9412 136.446 36.8161 136.713 36.7752C136.984 36.7355 137.262 36.7635 137.546 36.8593ZM139.676 40.9636C139.392 40.8679 139.161 40.7331 138.983 40.5593C138.81 40.3829 138.699 40.1808 138.649 39.953C138.603 39.7264 138.624 39.4824 138.712 39.2208C138.827 38.8796 139.001 38.6006 139.234 38.3837C139.468 38.1669 139.735 38.0248 140.036 37.9574C140.339 37.8862 140.647 37.9035 140.962 38.0095C141.227 38.0988 141.44 38.2272 141.598 38.3947C141.759 38.5583 141.86 38.7528 141.902 38.9781C141.948 39.2046 141.927 39.4506 141.837 39.716C141.817 39.7766 141.792 39.8379 141.763 39.8998C141.735 39.9579 141.706 40.0134 141.675 40.0665L139.054 39.1839L139.206 38.8997L141.589 39.7019L141.386 39.7601C141.504 39.5341 141.555 39.3274 141.537 39.1401C141.52 38.9529 141.45 38.792 141.326 38.6576C141.208 38.5206 141.044 38.417 140.836 38.3468C140.593 38.2651 140.357 38.253 140.126 38.3105C139.897 38.3642 139.694 38.4794 139.516 38.6559C139.34 38.8287 139.205 39.0553 139.11 39.3359C139.009 39.6353 139.017 39.8953 139.132 40.1157C139.253 40.3337 139.486 40.5007 139.831 40.6169C140.032 40.6845 140.229 40.7148 140.421 40.7078C140.614 40.697 140.786 40.6514 140.935 40.5708L141.02 40.9221C140.832 41.0152 140.619 41.0657 140.38 41.0739C140.146 41.0795 139.911 41.0427 139.676 40.9636ZM144.475 42.5856C144.282 42.5205 144.097 42.4352 143.922 42.3297C143.751 42.2216 143.603 42.1042 143.477 41.9773C143.352 41.8467 143.26 41.7186 143.201 41.5932L143.517 41.3323C143.576 41.4577 143.66 41.5788 143.768 41.6955C143.88 41.8135 144.011 41.9207 144.16 42.0173C144.31 42.1101 144.467 42.184 144.63 42.2388C144.865 42.318 145.08 42.3566 145.274 42.3546C145.473 42.354 145.641 42.3115 145.78 42.2271C145.918 42.1428 146.015 42.0172 146.071 41.8504C146.116 41.7177 146.113 41.5988 146.064 41.4937C146.017 41.3848 145.94 41.2852 145.836 41.1951C145.732 41.1012 145.614 41.0085 145.48 40.917C145.346 40.8255 145.214 40.7303 145.082 40.6312C144.951 40.5322 144.835 40.4256 144.734 40.3114C144.637 40.1985 144.57 40.0706 144.534 39.9275C144.502 39.7858 144.516 39.6258 144.575 39.4476C144.66 39.1974 144.8 39.0062 144.997 38.874C145.194 38.738 145.429 38.6628 145.699 38.6484C145.97 38.6341 146.261 38.6792 146.572 38.7839C146.807 38.863 147.023 38.9674 147.22 39.097C147.42 39.2279 147.577 39.3757 147.691 39.5405L147.4 39.8223C147.291 39.6677 147.153 39.5326 146.985 39.4169C146.819 39.2975 146.633 39.2034 146.428 39.1345C146.197 39.0566 145.983 39.0205 145.787 39.0263C145.591 39.032 145.423 39.0789 145.284 39.1671C145.15 39.2527 145.054 39.3789 144.998 39.5457C144.954 39.6784 144.953 39.7985 144.997 39.9062C145.045 40.0151 145.121 40.1165 145.224 40.2104C145.331 40.3056 145.451 40.4009 145.584 40.4961C145.717 40.5876 145.85 40.6829 145.981 40.7819C146.114 40.8772 146.229 40.9813 146.326 41.0941C146.428 41.2045 146.498 41.3293 146.535 41.4685C146.574 41.604 146.564 41.7589 146.505 41.9333C146.42 42.1873 146.276 42.3817 146.075 42.5164C145.874 42.6474 145.635 42.7187 145.357 42.7305C145.084 42.7398 144.79 42.6915 144.475 42.5856ZM147.68 43.6582C147.509 43.6008 147.375 43.5156 147.278 43.4028C147.182 43.2861 147.133 43.1512 147.129 42.9982C147.13 42.8464 147.181 42.6821 147.283 42.5053L148.757 39.9312L149.161 40.0672L147.692 42.6242C147.592 42.7972 147.557 42.9457 147.587 43.0697C147.62 43.1951 147.726 43.2877 147.904 43.3477C147.988 43.3758 148.073 43.3919 148.16 43.3959C148.249 43.3962 148.334 43.3806 148.417 43.3493L148.41 43.6889C148.291 43.729 148.168 43.7444 148.04 43.7352C147.913 43.7222 147.793 43.6965 147.68 43.6582ZM147.694 40.6813L147.87 40.3668L149.718 40.9891L149.537 41.3016L147.694 40.6813ZM150.265 44.5287C149.988 44.4356 149.765 44.3033 149.595 44.1321C149.43 43.9583 149.322 43.7575 149.272 43.5296C149.226 43.3031 149.246 43.0609 149.333 42.8031C149.448 42.4619 149.624 42.1835 149.861 41.968C150.1 41.7486 150.375 41.6071 150.688 41.5435C151.002 41.4762 151.325 41.4987 151.659 41.611C151.936 41.7041 152.157 41.8357 152.324 42.0057C152.494 42.177 152.602 42.3759 152.648 42.6025C152.698 42.8303 152.68 43.0731 152.593 43.3309C152.478 43.6721 152.302 43.9524 152.063 44.1718C151.826 44.3873 151.55 44.5288 151.236 44.5962C150.926 44.6648 150.603 44.6423 150.265 44.5287ZM150.414 44.1801C150.664 44.2643 150.906 44.2802 151.139 44.2278C151.377 44.1728 151.587 44.0577 151.768 43.8825C151.953 43.7085 152.091 43.4869 152.182 43.2177C152.281 42.922 152.271 42.6633 152.152 42.4416C152.036 42.2212 151.823 42.0586 151.512 41.954C151.266 41.871 151.023 41.857 150.785 41.9119C150.547 41.9669 150.336 42.0813 150.151 42.2553C149.97 42.4268 149.834 42.649 149.743 42.922C149.644 43.2139 149.653 43.4701 149.769 43.6905C149.888 43.9122 150.103 44.0754 150.414 44.1801ZM152.509 45.2526L154.106 42.4664L154.492 42.5966L154.025 43.4205L154.031 43.2517C154.252 43.0348 154.491 42.902 154.748 42.8535C155.008 42.8062 155.302 42.8374 155.628 42.9472L155.422 43.3147C155.403 43.3083 155.384 43.3019 155.365 43.2955C155.351 43.2866 155.333 43.2784 155.31 43.2707C154.992 43.1635 154.697 43.1677 154.426 43.2832C154.16 43.3963 153.926 43.6258 153.726 43.9718L152.913 45.3885L152.509 45.2526ZM154.34 47.129C154.2 47.0817 154.074 47.0118 153.961 46.9191C153.848 46.8302 153.767 46.7313 153.72 46.6224L154.035 46.3995C154.077 46.4894 154.135 46.568 154.209 46.6353C154.283 46.7025 154.376 46.7547 154.486 46.7917C154.614 46.8351 154.744 46.8386 154.874 46.8023C155.007 46.7711 155.163 46.6843 155.342 46.5419L155.798 46.1828L155.869 46.1431L158.575 43.9712L158.99 44.111L155.672 46.7478C155.483 46.8952 155.315 47.0035 155.17 47.0727C155.023 47.1456 154.883 47.185 154.75 47.1909C154.621 47.1981 154.484 47.1775 154.34 47.129ZM155.648 46.4043L155.914 43.0752L156.324 43.2131L156.072 46.1798L155.648 46.4043ZM159.554 46.2951C159.642 46.1347 159.746 46.0091 159.865 45.9184C159.985 45.8239 160.113 45.7509 160.249 45.6995C160.385 45.6442 160.522 45.5972 160.657 45.5584C160.798 45.5171 160.929 45.4726 161.05 45.4249C161.172 45.3772 161.278 45.3117 161.369 45.2285C161.465 45.1466 161.536 45.0336 161.585 44.8895C161.647 44.7038 161.626 44.5361 161.52 44.3865C161.418 44.2382 161.236 44.1201 160.975 44.032C160.724 43.9477 160.491 43.9135 160.275 43.9293C160.064 43.9426 159.86 44.0008 159.665 44.1039L159.48 43.7694C159.71 43.6398 159.964 43.5672 160.244 43.5516C160.527 43.5373 160.83 43.5844 161.152 43.6929C161.395 43.7746 161.591 43.8808 161.741 44.0115C161.893 44.1385 161.993 44.2842 162.044 44.4488C162.095 44.6096 162.089 44.7829 162.027 44.9687C161.967 45.1468 161.885 45.2902 161.781 45.3986C161.682 45.5046 161.57 45.5871 161.444 45.6462C161.319 45.7052 161.188 45.7561 161.051 45.7987C160.914 45.8413 160.779 45.8864 160.644 45.9341C160.512 45.9779 160.385 46.0389 160.266 46.117C160.152 46.1925 160.053 46.2985 159.969 46.4348L159.554 46.2951ZM159.154 47.5215C159.074 47.4947 159.015 47.4452 158.976 47.3729C158.942 47.2982 158.938 47.2229 158.964 47.1471C158.993 47.0599 159.047 46.9981 159.127 46.9617C159.208 46.9214 159.291 46.9153 159.374 46.9434C159.454 46.9702 159.511 47.0191 159.546 47.09C159.585 47.1623 159.592 47.2363 159.566 47.3121C159.547 47.369 159.516 47.4176 159.473 47.4579C159.431 47.4945 159.38 47.5196 159.321 47.5334C159.267 47.5446 159.211 47.5406 159.154 47.5215Z" fill="#440000"/>
</g>
<defs>
<linearGradient id="paint0_linear_512_360" x1="25.7192" y1="86.4316" x2="25.7192" y2="119.024" gradientUnits="userSpaceOnUse">
<stop offset="0.270881" stop-color="#978B8B"/>
<stop offset="1" stop-color="#978B8B" stop-opacity="0"/>
</linearGradient>
<clipPath id="clip0_512_360">
<rect width="261.642" height="166" fill="white"/>
</clipPath>
</defs>
</svg>
